<!DOCTYPE svg PUBLIC "-//W3C//DTD SVG 1.1//EN" "http://www.w3.org/Graphics/SVG/1.1/DTD/svg11.dtd">
<!-- Uploaded to: SVG Repo, www.svgrepo.com, Transformed by: SVG Repo Mixer Tools -->
<svg fill="#0A1929" height="220px" width="220px" version="1.1" id="Layer_1" xmlns="http://www.w3.org/2000/svg" xmlns:xlink="http://www.w3.org/1999/xlink" viewBox="-102.4 -102.4 716.80 716.80" xml:space="preserve" stroke="#0A1929" stroke-width="0.005120040000000001">
<g id="SVGRepo_bgCarrier" stroke-width="0">
<path transform="translate(-102.4, -102.4), scale(44.8)" fill="#FF6B35" d="M9.166.33a2.25 2.25 0 00-2.332 0l-5.25 3.182A2.25 2.25 0 00.5 5.436v5.128a2.25 2.25 0 001.084 1.924l5.25 3.182a2.25 2.25 0 002.332 0l5.25-3.182a2.25 2.25 0 001.084-1.924V5.436a2.25 2.25 0 00-1.084-1.924L9.166.33z" strokewidth="0"/>
</g>
<g id="SVGRepo_tracerCarrier" stroke-linecap="round" stroke-linejoin="round"/>
<g id="SVGRepo_iconCarrier"> <g> <g> <path d="M488.826,206.73h-50.689c-4.886,0-8.847-3.961-8.847-8.847v-33.646h-73.971v103.15H512v-37.482 C512,217.126,501.604,206.73,488.826,206.73z"/> </g> </g> <g> <g> <path d="M107.562,327.442c-17.547,0-31.823,14.277-31.823,31.823c0,17.547,14.277,31.823,31.823,31.823 s31.823-14.277,31.823-31.823C139.386,341.719,125.11,327.442,107.562,327.442z"/> </g> </g> <g> <g> <path d="M233.78,327.442c-17.547,0-31.823,14.277-31.823,31.823c0,17.547,14.277,31.823,31.823,31.823 s31.823-14.277,31.823-31.823C265.604,341.719,251.328,327.442,233.78,327.442z"/> </g> </g> <g> <g> <path d="M445.107,327.442c-17.547,0-31.823,14.277-31.823,31.823c0,17.547,14.277,31.823,31.823,31.823 s31.823-14.276,31.823-31.823C476.93,341.719,462.654,327.442,445.107,327.442z"/> </g> </g> <g> <g> <path d="M355.319,285.081v14.313h-30.597v-14.313h-0.034v-17.694h0.034V160.953h-0.034v-16.446h13.394h7.209 c6.515,0,11.796-5.281,11.796-11.796c0-6.515-5.281-11.796-11.796-11.796h-32.399c-6.515,0-11.796,5.281-11.796,11.796v10.548 v17.694H0l23.826,106.434h277.27v17.694H16.741H0.543v58.617h60.023c6.542-19.698,25.13-33.949,46.997-33.949 s40.453,14.252,46.997,33.949h32.226c6.542-19.698,25.13-33.949,46.997-33.949c21.866,0,40.453,14.252,46.997,33.949h43.946 v-8.916h30.597v8.916h42.793c6.542-19.698,25.13-33.949,46.997-33.949c21.866,0,40.453,14.252,46.997,33.949h1.138 c10.344,0,18.758-8.415,18.758-18.758v-39.859H355.319z"/> </g> </g> </g>
</svg>