<!DOCTYPE svg PUBLIC "-//W3C//DTD SVG 1.1//EN" "http://www.w3.org/Graphics/SVG/1.1/DTD/svg11.dtd">
<!-- Uploaded to: SVG Repo, www.svgrepo.com, Transformed by: SVG Repo Mixer Tools -->
<svg height="220px" width="220px" version="1.1" id="_x32_" xmlns="http://www.w3.org/2000/svg" xmlns:xlink="http://www.w3.org/1999/xlink" viewBox="-102.4 -102.4 716.80 716.80" xml:space="preserve" fill="#0A1929" transform="matrix(1, 0, 0, 1, 0, 0)rotate(0)">
<g id="SVGRepo_bgCarrier" stroke-width="0">
<path transform="translate(-102.4, -102.4), scale(44.8)" fill="#FF6B35" d="M9.166.33a2.25 2.25 0 00-2.332 0l-5.25 3.182A2.25 2.25 0 00.5 5.436v5.128a2.25 2.25 0 001.084 1.924l5.25 3.182a2.25 2.25 0 002.332 0l5.25-3.182a2.25 2.25 0 001.084-1.924V5.436a2.25 2.25 0 00-1.084-1.924L9.166.33z" strokewidth="0"/>
</g>
<g id="SVGRepo_tracerCarrier" stroke-linecap="round" stroke-linejoin="round"/>
<g id="SVGRepo_iconCarrier"> <style type="text/css"> .st0{fill:#0A1929;} </style> <g> <path class="st0" d="M497.568,60.446H252.044c-7.972,0-14.426,6.46-14.426,14.433v226.703c0,7.972,6.454,14.432,14.426,14.432 h245.524c7.972,0,14.432-6.46,14.432-14.432V74.879C512,66.906,505.54,60.446,497.568,60.446z"/> <path class="st0" d="M116.683,354.34c-26.836,0-48.606,21.764-48.606,48.6c0,26.85,21.77,48.614,48.606,48.614 c26.844,0,48.608-21.764,48.608-48.614C165.29,376.104,143.526,354.34,116.683,354.34z M116.683,424.826 c-12.079,0-21.871-9.799-21.871-21.886c0-12.073,9.792-21.865,21.871-21.865c12.08,0,21.872,9.792,21.872,21.865 C138.555,415.027,128.763,424.826,116.683,424.826z"/> <path class="st0" d="M403.8,354.34c-26.836,0-48.6,21.764-48.6,48.6c0,26.85,21.764,48.614,48.6,48.614 c26.843,0,48.606-21.764,48.606-48.614C452.406,376.104,430.643,354.34,403.8,354.34z M403.8,424.826 c-12.073,0-21.865-9.799-21.865-21.886c0-12.073,9.792-21.865,21.865-21.865c12.079,0,21.871,9.792,21.871,21.865 C425.671,415.027,415.879,424.826,403.8,424.826z"/> <path class="st0" d="M200.119,128.623H90.502c-3.561,0-6.957,1.582-9.23,4.331l-78.48,94.163C0.986,229.268,0,231.995,0,234.815 v82.595v43.19c0,6.648,5.389,12.029,12.03,12.029h36.836c11.634-25.9,37.629-44.024,67.817-44.024 c30.196,0,56.183,18.124,67.81,44.024h27.671V140.652C212.163,134.003,206.767,128.623,200.119,128.623z M43.931,236.053 c0-2.849,0.978-5.612,2.777-7.82l50.103-61.694c2.36-2.907,5.9-4.59,9.634-4.59h49.074c6.857,0,12.404,5.554,12.404,12.411v70.011 c0,6.849-5.547,12.404-12.404,12.404H56.327c-6.842,0-12.396-5.554-12.396-12.404V236.053z"/> <path class="st0" d="M243.532,338.792c-3.741,0-6.763,3.029-6.763,6.77v20.303c0,3.735,3.022,6.763,6.763,6.763h92.466 c6.374-14.209,17.072-26.023,30.419-33.836H243.532z"/> <path class="st0" d="M504.381,338.792h-63.19c13.346,7.814,24.045,19.627,30.419,33.836h32.771c3.741,0,6.763-3.028,6.763-6.763 v-20.303C511.144,341.821,508.122,338.792,504.381,338.792z"/> </g> </g>
</svg>